<svg id="Layer_1" data-name="Layer 1" xmlns="http://www.w3.org/2000/svg" viewBox="0 0 98.19 27.58"><defs><style>.cls-1{fill:#ddd;}.cls-2{fill:#3c6;}.cls-3{fill:#fff;}</style></defs><path class="cls-1" d="M15.89,5.48l-.44,1a5.93,5.93,0,0,0-.84-.06c.19-.4.37-.81.56-1.22A.39.39,0,0,1,15.89,5.48Z" transform="translate(-0.65 -1.21)"/><rect class="cls-2" x="36.65" y="7.85" width="1.58" height="4.88"/><path class="cls-2" d="M29.06,9.23a4.63,4.63,0,0,0,.76,2.46h0A4.58,4.58,0,0,0,31,13a5,5,0,0,0,3.07.95h1.48V12.43H34.4a4,4,0,0,1-1.62-.24h0a3,3,0,0,1-1.13-.76h0a3.39,3.39,0,0,1-1-2.35H29.06Z" transform="translate(-0.65 -1.21)"/><path class="cls-2" d="M40.42,9.56v4.38H42V9.34c0-.1,0-.19,0-.28H40.43C40.43,9.22,40.42,9.38,40.42,9.56Z" transform="translate(-0.65 -1.21)"/><path class="cls-2" d="M48.67,9.34v4.6h1.58V9.56c0-.18,0-.34,0-.5H48.66C48.66,9.15,48.67,9.24,48.67,9.34Z" transform="translate(-0.65 -1.21)"/><path class="cls-2" d="M60,9.1a3.53,3.53,0,0,1-.67,2,3.4,3.4,0,0,1-1.75,1.21,4.2,4.2,0,0,1-1.26.15H51.78v1.51h4.35a5.77,5.77,0,0,0,2.53-.41h0a4.81,4.81,0,0,0,2.93-4.45H60Z" transform="translate(-0.65 -1.21)"/><path class="cls-2" d="M69.61,9.07H63.14v1.51h3.8a3.68,3.68,0,0,1,2.16.59,3.33,3.33,0,0,1,1.45,2.65v.12h1.59V13.8a4.67,4.67,0,0,0-1.22-3.1l-.25-.27.35-.12a3,3,0,0,0,1-.7h0a4.94,4.94,0,0,0,.42-.54H69.61Z" transform="translate(-0.65 -1.21)"/><path class="cls-2" d="M82.75,9.08h0a4,4,0,0,1-.15,1,3.54,3.54,0,0,1-1.27,1.76h0a3.33,3.33,0,0,1-1.8.6h-.2a3.22,3.22,0,0,1-2.11-.86h0a3.4,3.4,0,0,1-1.11-2.5H74.5v0a5.06,5.06,0,0,0,.27,1.59,5.61,5.61,0,0,0,.77,1.42h0a4.85,4.85,0,0,0,3.82,1.82h.07a5,5,0,0,0,3-1h0a4.79,4.79,0,0,0,1.88-3.82v0H82.75Z" transform="translate(-0.65 -1.21)"/><rect class="cls-2" x="85.21" y="7.85" width="1.58" height="4.88"/><path class="cls-2" d="M97.27,9.1a3.61,3.61,0,0,1-.67,2,3.47,3.47,0,0,1-1.76,1.21,4.08,4.08,0,0,1-1.25.15H89v1.51h4.35a5.77,5.77,0,0,0,2.53-.41h0a4.8,4.8,0,0,0,2.94-4.45H97.27Z" transform="translate(-0.65 -1.21)"/><path class="cls-2" d="M34.4,4.18a6.51,6.51,0,0,0-1.69.16,5,5,0,0,0-1,.38h0a4.51,4.51,0,0,0-1.28,1h0a4.67,4.67,0,0,0-1.32,3.22v.13h1.57A3.62,3.62,0,0,1,31.36,7h0A3.14,3.14,0,0,1,33,5.86h0a5,5,0,0,1,1.79-.14h2.51V9.06h1.58V4.18Z" transform="translate(-0.65 -1.21)"/><path class="cls-2" d="M49.69,6.8h0a3.88,3.88,0,0,0-.41-.66h0a5,5,0,0,0-7.86,0,3.43,3.43,0,0,0-.42.65v0h0a4.71,4.71,0,0,0-.35.89,5.79,5.79,0,0,0-.2,1.37H42a3.36,3.36,0,0,1,2.35-3.21h0a3.55,3.55,0,0,1,.94-.16h0a3.62,3.62,0,0,1,.95.16h0a3.36,3.36,0,0,1,2.35,3.21h1.58a5.85,5.85,0,0,0-.19-1.37A5.41,5.41,0,0,0,49.69,6.8Z" transform="translate(-0.65 -1.21)"/><path class="cls-2" d="M59.35,4.94a4.93,4.93,0,0,0-1.79-.67h0a14.63,14.63,0,0,0-2.31-.08H51.78V5.7h4.57a3.54,3.54,0,0,1,2.28.66h0a2.73,2.73,0,0,1,.8.82h0A3.47,3.47,0,0,1,60,9.06h1.58A4.79,4.79,0,0,0,60.51,6,5.84,5.84,0,0,0,59.35,4.94Z" transform="translate(-0.65 -1.21)"/><path class="cls-2" d="M73,7.28a3.13,3.13,0,0,0-.36-1.39h0a2.39,2.39,0,0,0-.56-.72h0a3.33,3.33,0,0,0-2.56-1H63.14V5.69h6.29a1.83,1.83,0,0,1,.33,0h0a1.66,1.66,0,0,1,1,.39h0a1.73,1.73,0,0,1,.57,1.26v0h0c0,.1,0,.24-.06.39v0h0a1.71,1.71,0,0,1-1.47,1.23h2.64A2.7,2.7,0,0,0,73,7.58Z" transform="translate(-0.65 -1.21)"/><path class="cls-2" d="M83.3,6h0a4.88,4.88,0,0,0-3.84-1.84h-.07a4.27,4.27,0,0,0-.8.06h0a4.93,4.93,0,0,0-2.23,1h0A4.8,4.8,0,0,0,74.5,9v0h1.58a3.34,3.34,0,0,1,.21-1.12h0a3.61,3.61,0,0,1,.58-1h0a3.37,3.37,0,0,1,2.53-1.19,3.33,3.33,0,0,1,2.24.91h0a3.37,3.37,0,0,1,1.08,2.45h1.58V9A4.93,4.93,0,0,0,83.3,6Z" transform="translate(-0.65 -1.21)"/><rect class="cls-2" x="85.21" y="2.98" width="1.58" height="4.87"/><path class="cls-2" d="M96.59,4.94a4.93,4.93,0,0,0-1.79-.67h0a14.29,14.29,0,0,0-2.3-.08H89V5.7h4.57a3.54,3.54,0,0,1,2.28.66h0a2.73,2.73,0,0,1,.8.82h0a3.56,3.56,0,0,1,.58,1.86h1.58A4.79,4.79,0,0,0,97.75,6,5.84,5.84,0,0,0,96.59,4.94Z" transform="translate(-0.65 -1.21)"/><path class="cls-2" d="M83,22.11a2.23,2.23,0,0,0-1.41-.4,1.5,1.5,0,0,0-1,.31v.88h3A1.8,1.8,0,0,0,83,22.11Z" transform="translate(-0.65 -1.21)"/><path class="cls-2" d="M34.56,22.44a4.89,4.89,0,0,0-.28-1.82A2.22,2.22,0,0,0,32,19.34a2.19,2.19,0,0,0-1.56.43v1.86a1.86,1.86,0,0,1,1.32-.55q.89,0,.87.63h-.77a1.71,1.71,0,0,0-1.29.55,1.89,1.89,0,0,0-.41.64h4.37C34.55,22.75,34.56,22.59,34.56,22.44Z" transform="translate(-0.65 -1.21)"/><path class="cls-2" d="M38.11,21.79a6,6,0,0,0-1-3.88,4,4,0,0,0-3.22-1.21c-2,0-3.2.77-3.61,2.33h2.06a1.51,1.51,0,0,1,.75-.54,3.09,3.09,0,0,1,.93-.11c1.4,0,2.09,1.13,2.09,3.39,0,.2,0,.41,0,.64a3.65,3.65,0,0,1-.06.49h2C38.09,22.56,38.11,22.18,38.11,21.79Z" transform="translate(-0.65 -1.21)"/><path class="cls-2" d="M43.56,21.27V19.58H39.43V21.4h1.8a3,3,0,0,0-1,.89,3.07,3.07,0,0,0-.38.61h2A5,5,0,0,1,43.56,21.27Z" transform="translate(-0.65 -1.21)"/><path class="cls-2" d="M48.74,22.75h1.14a5.42,5.42,0,0,0-.24-2.21,2.11,2.11,0,0,0-2.28-1.32,3.3,3.3,0,0,0-2,.45V21.4a3.21,3.21,0,0,1,1.33-.47l.41,0c.54,0,.83.18.86.52H44.62v1.33h1.1a.48.48,0,0,0-.22.15h2.27A2.71,2.71,0,0,1,48.74,22.75Z" transform="translate(-0.65 -1.21)"/><path class="cls-2" d="M53.11,21.77a6.38,6.38,0,0,0-1-3.78,3.9,3.9,0,0,0-3.2-1.2,4.53,4.53,0,0,0-2.38.58A2.66,2.66,0,0,0,45.3,19h2A2.06,2.06,0,0,1,49,18.38a1.77,1.77,0,0,1,1.75,1.3,7.56,7.56,0,0,1,.33,2.71c0,.18,0,.35,0,.51h2C53.12,22.55,53.12,22.17,53.11,21.77Z" transform="translate(-0.65 -1.21)"/><path class="cls-2" d="M57.6,22.29a.28.28,0,0,1,.13,0c.21,0,.41.14.61.43a2.39,2.39,0,0,1,.13.21h2A3,3,0,0,0,60.1,22a1.75,1.75,0,0,0-1-.84,2.28,2.28,0,0,1,1.36-.06c.6.16.92.76,1,1.79h2c0-1.88-.68-3-1.93-3.48a4.45,4.45,0,0,0-2.25-.11A4.17,4.17,0,0,0,57.6,20a1.14,1.14,0,0,0-.5-.51,1.6,1.6,0,0,0-.84-.25,2.51,2.51,0,0,0-1.46.41v1.8a1.67,1.67,0,0,1,1-.33.58.58,0,0,1,.31.06c-.48.48-.77.78-.87.89a10.12,10.12,0,0,0-.72.83h2.34A4.18,4.18,0,0,1,57.6,22.29Z" transform="translate(-0.65 -1.21)"/><path class="cls-2" d="M66.75,19.53a1.74,1.74,0,0,0-.75-.28,2.47,2.47,0,0,0-1.3.17v1.85a.67.67,0,0,1,.6-.16c.37.06.56.66.56,1.79h2C67.87,21.13,67.51,20,66.75,19.53Z" transform="translate(-0.65 -1.21)"/><path class="cls-2" d="M71.71,21.62a1.34,1.34,0,0,1,1.14-.54c1,0,1.45.61,1.48,1.82H76.4a6.12,6.12,0,0,0-.22-1.66,2.62,2.62,0,0,0-2-2,2.25,2.25,0,0,0-.4-.06,3.23,3.23,0,0,0,.91-1,4.29,4.29,0,0,0,.49-1.26H73.13a5.43,5.43,0,0,1-.59,1.13,6.15,6.15,0,0,1-1.24,1.08,5.77,5.77,0,0,0-1,.89,4.1,4.1,0,0,0-.94,2.87h2A2.13,2.13,0,0,1,71.71,21.62Z" transform="translate(-0.65 -1.21)"/><path class="cls-2" d="M79.85,22.85c0-1,.38-1.52,1.1-1.68a4,4,0,0,1,.71-.05,2.68,2.68,0,0,1,.91.15,3.09,3.09,0,0,1,.86.53V19.89a2,2,0,0,0-1.05-.56,5,5,0,0,0-1.5-.11,2.73,2.73,0,0,0-2.57,1.67,5,5,0,0,0-.44,2h2Z" transform="translate(-0.65 -1.21)"/><path class="cls-2" d="M92.87,22.23a1.88,1.88,0,0,0-1.49-.66h-.62c0-.43.21-.64.75-.64A2.54,2.54,0,0,1,93,21.4V19.59a3.2,3.2,0,0,0-1.53-.35,2.85,2.85,0,0,0-2,.59,3.08,3.08,0,0,0-.77,2.37c0,.16,0,.39,0,.7h4.5A2.46,2.46,0,0,0,92.87,22.23Z" transform="translate(-0.65 -1.21)"/><path class="cls-2" d="M87.83,21.15a1.49,1.49,0,0,1,.9-.07V19.31a3.8,3.8,0,0,0-.72-.07,2.68,2.68,0,0,0-1.5.47c-.82.55-1.24,1.61-1.27,3.19h2C87.18,21.94,87.39,21.36,87.83,21.15Z" transform="translate(-0.65 -1.21)"/><path class="cls-2" d="M97.69,21v.43A2.31,2.31,0,0,0,96.91,20a2.35,2.35,0,0,0-1.14-.62v-.1a2.21,2.21,0,0,0-1,.18v1.85a.65.65,0,0,1,.6-.16c.37.06.56.66.56,1.79h2A7.31,7.31,0,0,0,97.69,21Z" transform="translate(-0.65 -1.21)"/><path class="cls-2" d="M96.77,19.53A2.29,2.29,0,0,1,97.69,21V17H95.77v2.27H96A1.65,1.65,0,0,1,96.77,19.53Z" transform="translate(-0.65 -1.21)"/><path class="cls-2" d="M96.91,20a2.31,2.31,0,0,1,.78,1.43V21a2.29,2.29,0,0,0-.92-1.43,1.65,1.65,0,0,0-.75-.28h-.25v.1A2.35,2.35,0,0,1,96.91,20Z" transform="translate(-0.65 -1.21)"/><path class="cls-2" d="M34.07,26.68a3.83,3.83,0,0,0,3.2-1.31,5.07,5.07,0,0,0,.79-2.47H36a2.23,2.23,0,0,1-.6,1.26,1.86,1.86,0,0,1-1.36.56c-1.27,0-1.91-.28-1.93-.91s.38-.77,1.18-.77h1.21a.66.66,0,0,1,0-.14H30.17a2.49,2.49,0,0,0-.18,1Q30,26.73,34.07,26.68Z" transform="translate(-0.65 -1.21)"/><path class="cls-2" d="M40.2,26.18a2.36,2.36,0,0,0,1.72.45,2.71,2.71,0,0,0,.94-.16,1.85,1.85,0,0,0,.65-.54V23.84c-.41.55-.8.82-1.16.82a1,1,0,0,1-.25,0c-.31-.08-.47-.34-.47-.78a1.66,1.66,0,0,1,.22-.87l0-.08h-2a2.84,2.84,0,0,0-.31,1.24A2.45,2.45,0,0,0,40.2,26.18Z" transform="translate(-0.65 -1.21)"/><path class="cls-2" d="M45,24.19a2.12,2.12,0,0,0,2.4,2.44q1.29,0,1.65-.78a1.49,1.49,0,0,0,.66.64,2.93,2.93,0,0,0,1.14.14c1.42,0,2.17-1.26,2.27-3.73h-2c-.06,1.18-.27,1.78-.65,1.78s-.5-.29-.5-.87v-.53H48.2v.56c0,.57-.19.85-.58.85s-.53-.28-.53-.83a.94.94,0,0,1,.36-.78,1.4,1.4,0,0,1,.32-.18H45.5a1.31,1.31,0,0,0-.23.31A2,2,0,0,0,45,24.19Z" transform="translate(-0.65 -1.21)"/><path class="cls-2" d="M54.52,24.37h.41a1.45,1.45,0,0,0-.17.94,1.33,1.33,0,0,0,.32.85,1.46,1.46,0,0,0,1.16.49,3,3,0,0,0,.78-.09.87.87,0,0,0,.56-.5,1.09,1.09,0,0,0,1.12.59l.34,0a1.34,1.34,0,0,0,.86-.41,1.79,1.79,0,0,0,.48-.73v1.12a3.89,3.89,0,0,0,.47,0,2.22,2.22,0,0,0,1.82-.91,4.2,4.2,0,0,0,.76-2.64v-.2h-2c0,.1,0,.21,0,.32a2.09,2.09,0,0,1-.28,1.12c-.2.31-.41.45-.64.42,0-.29,0-.65,0-1.07a3.35,3.35,0,0,0-.1-.79h-2a1.74,1.74,0,0,1,.2.75c0,.71-.08,1.07-.36,1.07s-.23-.21-.23-.64v-.57H57v.56c0,.43-.09.65-.29.65s-.32-.15-.32-.44a1.25,1.25,0,0,1,.25-.77H56.3c.22-.24.42-.44.59-.61H54.55l0,0Z" transform="translate(-0.65 -1.21)"/><path class="cls-2" d="M65.3,24.69a.76.76,0,0,1-.6-.13v1.88a1.92,1.92,0,0,0,1.25.17,2,2,0,0,0,1.24-.79A4.9,4.9,0,0,0,67.85,23V22.9h-2v0C65.86,24,65.68,24.59,65.3,24.69Z" transform="translate(-0.65 -1.21)"/><path class="cls-2" d="M72.88,26.69a3.35,3.35,0,0,0,2.63-1A3.91,3.91,0,0,0,76.4,23V22.9H74.33s0,.08,0,.12a2,2,0,0,1-.41,1.26,1.33,1.33,0,0,1-1.1.51,1.37,1.37,0,0,1-1.12-.51A2,2,0,0,1,71.3,23V22.9h-2V23C69.35,25.45,70.53,26.69,72.88,26.69Z" transform="translate(-0.65 -1.21)"/><path class="cls-2" d="M80.88,26.65a4.18,4.18,0,0,0,1.46-.19,2.33,2.33,0,0,0,1.42-2.4,3.12,3.12,0,0,0-.17-1.16h-3v.79a1.25,1.25,0,0,1,.53-.11c.45,0,.67.15.67.43,0,.46-.28.7-.84.71a.83.83,0,0,1-.84-.5,2.78,2.78,0,0,1-.22-1.32h-2a4.91,4.91,0,0,0,.59,2.66A2.59,2.59,0,0,0,80.88,26.65Z" transform="translate(-0.65 -1.21)"/><path class="cls-2" d="M85.31,24.28A3,3,0,0,0,86.05,26a1.83,1.83,0,0,0,1.35.69,2.3,2.3,0,0,0,1.93-.59,2.12,2.12,0,0,0,.53.41,3.69,3.69,0,0,0,1.46.18,2,2,0,0,0,1.45-.74,2.53,2.53,0,0,0,.69-1.78,3.56,3.56,0,0,0-.2-1.23h-4.5V23h2c.48,0,.72.32.72.95a.66.66,0,0,1-.74.76q-.54,0-.54-.69v-.57H88.51V24c0,.46-.17.69-.5.69a.68.68,0,0,1-.68-.54,4.84,4.84,0,0,1-.13-1c0-.1,0-.2,0-.29h-2v.17A9.71,9.71,0,0,0,85.31,24.28Z" transform="translate(-0.65 -1.21)"/><path class="cls-2" d="M95.33,24.69a.75.75,0,0,1-.6-.13v1.88a1.92,1.92,0,0,0,1.25.17,2.07,2.07,0,0,0,1.24-.79A4.9,4.9,0,0,0,97.88,23V22.9h-2v0C95.89,24,95.7,24.59,95.33,24.69Z" transform="translate(-0.65 -1.21)"/><path class="cls-2" d="M28.24,15A13.8,13.8,0,1,1,14.44,1.21,13.81,13.81,0,0,1,28.24,15Z" transform="translate(-0.65 -1.21)"/><path class="cls-3" d="M20.6,13.8v8.75a.54.54,0,0,1-.17.4l-.26.22-.14.1a9,9,0,0,1-3.57,1.31,9.9,9.9,0,0,1-1.22.14h0l-.62,0a10.77,10.77,0,0,1-1.6-.12,8.4,8.4,0,0,1-3.7-1.24,2.14,2.14,0,0,1-.55-.52.7.7,0,0,1-.13-.39V18.25a1.66,1.66,0,0,1-1.21-1.68c0-2,2.27-3,2.27-3a12,12,0,0,1,5.17-.88C19.34,12.17,20.6,13.8,20.6,13.8Z" transform="translate(-0.65 -1.21)"/><path class="cls-1" d="M20.6,13.8v4.42l-1.75-1.63L13,18.88l-1.82-1.09a3.12,3.12,0,0,1-2.52.47,1.68,1.68,0,0,1-1.21-1.69c0-2,2.27-3,2.27-3a12.29,12.29,0,0,1,5-.89h.22a9.3,9.3,0,0,1,4.67.39h0A2.79,2.79,0,0,1,20.6,13.8Z" transform="translate(-0.65 -1.21)"/><path class="cls-3" d="M20.6,12.12s-1.78-1.18-5.75.59h-.22a12.29,12.29,0,0,0-5,.89,1.46,1.46,0,0,0-1.28-.15,7.11,7.11,0,0,1,2.2-5.65,8.12,8.12,0,0,1,.75-.56A5.58,5.58,0,0,1,12,6.88a6,6,0,0,1,2.7-.64,4.6,4.6,0,0,1,.74,0,4.62,4.62,0,0,1,.63.11c1.63.39,3.51,1.55,4.33,4.7A9.61,9.61,0,0,1,20.6,12.12Z" transform="translate(-0.65 -1.21)"/><path class="cls-3" d="M20.6,18.22,18.82,16.3a11.57,11.57,0,0,1-5.75,1.1,1.07,1.07,0,0,1-.73-.41l-2.5-3.28a3.77,3.77,0,0,1,1.37,0,4.19,4.19,0,0,1,2.6,2l2.48-1-2.14.5a5.68,5.68,0,0,0-2.7-1.66s2.39-1.35,4.06,0a3,3,0,0,1,2.61-.07s1-.76,2.48.33Z" transform="translate(-0.65 -1.21)"/><path class="cls-3" d="M20.6,12.12a1.92,1.92,0,0,1-1.08,1h0a9.3,9.3,0,0,0-4.67-.39C18.82,10.94,20.6,12.12,20.6,12.12Z" transform="translate(-0.65 -1.21)"/><path class="cls-1" d="M12,6.88a5.58,5.58,0,0,0-.63.35l-.74-.76A.35.35,0,0,1,11.1,6Z" transform="translate(-0.65 -1.21)"/><path class="cls-1" d="M15.8,5.44c-.13.29-.25.57-.38.85a4.6,4.6,0,0,0-.74,0c.16-.36.32-.72.49-1.08S16,5,15.8,5.44Z" transform="translate(-0.65 -1.21)"/><circle class="cls-2" cx="12.2" cy="11.06" r="0.68" transform="translate(-4.9 10.66) rotate(-45)"/><circle class="cls-2" cx="16.46" cy="10" r="0.68" transform="translate(-2.91 13.36) rotate(-45)"/></svg>